<?xml version="1.0" standalone="no"?>
<!DOCTYPE svg PUBLIC "-//W3C//DTD SVG 20010904//EN"
 "http://www.w3.org/TR/2001/REC-SVG-20010904/DTD/svg10.dtd">
<svg version="1.0" xmlns="http://www.w3.org/2000/svg"
 width="500.000000pt" height="500.000000pt" viewBox="0 0 500.000000 500.000000"
 preserveAspectRatio="xMidYMid meet">
<metadata>
Created by potrace 1.11, written by Peter Selinger 2001-2013
</metadata>
<g transform="translate(0.000000,500.000000) scale(0.100000,-0.100000)"
fill="#000000" stroke="none">
<path d="M2293 4459 c-270 -26 -587 -133 -816 -274 -419 -260 -726 -663 -857
-1123 -87 -308 -98 -619 -34 -926 121 -573 497 -1069 1009 -1329 293 -148 571
-217 883 -217 662 0 1285 342 1634 897 152 242 254 523 288 796 10 80 16 97
34 106 42 23 71 80 71 142 0 49 -4 63 -31 96 -43 54 -88 75 -151 70 -93 -7
-153 -72 -153 -167 0 -58 10 -82 53 -127 l31 -33 -13 -82 c-88 -592 -443
-1089 -961 -1348 -250 -125 -462 -178 -745 -187 -311 -10 -548 40 -830 177
-283 137 -525 348 -699 610 -83 124 -126 207 -181 346 -85 214 -118 396 -117
649 0 151 4 202 26 317 108 572 467 1035 997 1288 220 104 498 170 719 170
134 -1 210 -69 210 -188 0 -60 -26 -109 -77 -145 -35 -25 -51 -29 -169 -37
-383 -28 -671 -157 -929 -415 -141 -141 -231 -274 -302 -444 -75 -182 -102
-302 -110 -501 -9 -226 28 -418 122 -632 58 -132 94 -178 141 -178 43 0 74 30
74 70 0 17 -20 70 -44 118 -57 113 -101 248 -122 369 -33 196 -6 465 66 653
128 330 401 600 733 724 123 46 225 66 386 76 120 8 141 12 197 40 78 38 145
111 174 188 30 79 25 195 -12 267 -26 50 -103 131 -148 155 -71 38 -171 46
-347 29z"/>
<path d="M2414 3496 c-16 -7 -46 -31 -65 -53 -25 -30 -47 -43 -84 -52 -189
-47 -382 -178 -500 -341 -90 -124 -137 -243 -162 -408 -40 -275 67 -572 275
-763 294 -269 715 -314 1057 -111 101 60 245 201 301 297 78 135 118 265 130
425 7 107 18 134 69 178 43 38 70 46 136 40 58 -6 113 -44 142 -99 16 -29 18
-51 13 -159 -12 -301 -141 -587 -364 -808 -183 -182 -404 -301 -647 -346 -284
-52 -533 -17 -801 115 -55 27 -111 49 -123 49 -31 0 -71 -43 -71 -78 0 -42 30
-67 153 -126 224 -107 335 -131 612 -131 245 1 321 14 510 90 203 81 345 176
499 335 249 257 389 591 390 930 1 125 -1 139 -25 190 -91 192 -324 257 -501
140 -97 -64 -141 -157 -153 -322 -22 -310 -205 -550 -497 -650 -86 -30 -103
-32 -223 -33 -109 0 -142 4 -205 23 -199 63 -347 183 -443 361 -101 187 -109
447 -19 641 75 163 216 300 380 370 99 42 133 46 157 20 31 -35 70 -50 125
-50 97 0 161 60 168 158 3 49 0 63 -25 100 -47 71 -135 100 -209 68z"/>
<path d="M1464 1741 c-104 -64 -120 -190 -33 -273 69 -65 177 -62 238 7 101
115 27 285 -124 285 -31 0 -62 -7 -81 -19z"/>
</g>
</svg>
